<svg width="193" height="34" viewBox="0 0 193 34" fill="none" xmlns="http://www.w3.org/2000/svg">
<path fill-rule="evenodd" clip-rule="evenodd" d="M179.477 0.753781C186.585 0.753781 190.494 4.04187 190.494 10.2527C190.85 15.0022 187.651 19.0209 183.386 19.7516L192.982 33.2693H185.519L177.345 20.117H176.634V33.2693H170.592V0.753781H179.477ZM176.634 15.7331H178.411C182.32 15.7331 184.097 13.9064 184.097 10.6183C184.097 7.69554 182.32 5.86883 178.411 5.86883H176.634V15.7331ZM149.624 33.2693H166.683V27.7892H155.665V19.0209H166.327V13.5408H155.665V6.23393H166.683V0.753781H149.624V33.2693ZM131.853 22.6744L123.679 0.753781H117.282L130.431 34H133.63L146.78 0.753781H140.383L131.853 22.6744ZM59.7073 17.194C59.7073 26.3276 66.8153 33.9998 75.7003 33.9998C78.5435 33.9998 81.0313 33.2691 83.5191 32.1731V24.8662C81.7421 27.0583 79.2543 28.5197 76.4111 28.5197C70.7247 28.5197 66.1045 24.1356 66.1045 18.2901V17.5594C65.7491 11.7139 70.3693 6.59909 76.0557 6.23375C78.8989 6.23375 81.7421 7.69512 83.5191 9.88718V2.58031C81.3867 1.11894 78.5435 0.753598 76.0557 0.753598C66.8153 0.0229117 59.7073 7.69512 59.7073 17.194ZM48.6898 13.1754C45.1358 11.7141 44.0696 10.9834 44.0696 9.15666C44.425 6.9646 46.202 5.13788 48.3344 5.50323C50.1114 5.50323 51.8884 6.59926 53.31 8.06063L56.5086 3.67651C54.0208 1.48445 50.8222 0.0230776 47.6236 0.0230776C42.648 -0.342266 38.3832 3.67651 38.0278 8.79132V9.15666C38.0278 13.5408 39.8048 16.0982 45.4912 17.9249C46.9128 18.2902 48.3344 19.0209 49.756 19.7516C50.8222 20.4823 51.533 21.5783 51.533 23.0397C51.533 25.5971 49.4006 27.7892 47.2682 27.7892H46.9128C44.0696 27.7892 41.5818 25.9624 40.5156 23.405L36.6062 27.4238C38.7386 31.4426 43.0034 33.6347 47.2682 33.6347C52.9546 34 57.5748 29.6159 57.9302 23.7704V22.6744C57.5748 18.2902 55.7978 16.0982 48.6898 13.1754ZM28.0766 33.2693H34.1184V0.753781H28.0766V33.2693ZM0 0.753781H8.885H10.662C19.1916 1.11912 25.9442 8.42599 25.5888 17.1942C25.5888 21.9437 23.4564 26.3278 19.9024 29.6159C16.7038 32.1733 12.7944 33.6347 8.885 33.2693H0V0.753781ZM7.81891 27.789C10.6621 28.1544 13.8607 27.0583 15.9931 25.2316C18.1255 23.0396 19.1917 20.1168 19.1917 16.8287C19.1917 13.906 18.1255 10.9832 15.9931 8.79117C13.8607 6.96446 10.6621 5.86843 7.81891 6.23377H6.04191V27.789H7.81891Z" fill="black"/>
<path fill-rule="evenodd" clip-rule="evenodd" d="M101.645 0C92.7597 0 85.2963 7.30686 85.2963 16.8058C85.2963 25.9394 92.4043 33.6116 101.645 33.9769C110.885 34.3423 117.993 26.6701 118.348 17.1711C117.993 7.67221 110.885 0 101.645 0V0Z" fill="#FD6020"/>
</svg>
